<?xml version="1.0" encoding="UTF-8"?>
<svg width="188px" height="188px" viewBox="0 0 188 188" version="1.1" xmlns="http://www.w3.org/2000/svg" xmlns:xlink="http://www.w3.org/1999/xlink">
    <!-- Generator: Sketch 41.2 (35397) - http://www.bohemiancoding.com/sketch -->
    <title>Group</title>
    <desc>Created with Sketch.</desc>
    <defs>
        <path d="M109.13,177 L54.594,177 L0.058,177 L0.058,5.96900074 C3.08404603,3.80876191 6.24319826,1.82351208 9.52073603,0.027996446 L99.6677138,0.028000006 C102.945091,1.82342605 106.104094,3.80857168 109.13,5.96869024 L109.13,159.554856 L109.13,177 Z" id="path-1"></path>
    </defs>
    <g id="Page-1" stroke="none" stroke-width="1" fill="none" fill-rule="evenodd">
        <g id="Group">
            <rect id="Rectangle" fill="#E5E6DC" x="0" y="0" width="188" height="188"></rect>
            <g id="Group-71" transform="translate(39.000000, 11.000000)">
                <mask id="mask-2" fill="white">
                    <use xlink:href="#path-1"></use>
                </mask>
                <g id="Clip-62"></g>
                <path d="M87.228,142.493 L87.209,142.493 C85.167,140.948 83.031,139.574 80.78,138.334 L80.589,138.238 C69.943,132.362 62.732,121.03 62.732,108 L46.611,107.923 C46.611,120.992 39.342,132.381 28.6,138.238 L28.562,138.257 C26.292,139.498 24.117,140.89 22.057,142.417 C8.702,152.356 0.059,168.249 0.059,186.182 L109.13,186.182 C109.13,168.287 100.525,152.433 87.228,142.493" id="Fill-61" fill="#E5BD95" mask="url(#mask-2)"></path>
                <path d="M0.058,186.176 C0.058,168.242 8.701,152.35 22.056,142.41 C24.116,140.884 26.291,139.491 28.561,138.251 C30.355,137.259 32.034,136.153 33.579,134.893 C38.921,140.369 46.381,143.765 54.641,143.765 C62.883,143.765 70.324,140.369 75.666,134.913 C77.192,136.172 78.852,137.278 80.588,138.232 C83.03,139.568 85.167,140.941 87.208,142.487 C100.525,152.426 109.129,168.28 109.129,186.176 L0.058,186.176 Z" id="Fill-63" fill="#477AB1" mask="url(#mask-2)"></path>
                <path d="M12.737,69.474 C12.737,98.45 38.175,121.939 54.595,121.939 C71.015,121.939 96.452,98.45 96.452,69.474 L96.452,26.638 L12.737,26.638 L12.737,69.474 Z" id="Fill-64" fill="#E5BD95" mask="url(#mask-2)"></path>
                <path d="M89.633,18.754 C80.51,7.332 66.662,0.028 51.17,0.028 C23.65,0.028 1.361,23 1.361,51.329 C1.361,66.365 7.628,79.885 17.635,89.261 C15.058,82.791 13.617,75.539 13.617,67.881 C13.617,55.574 17.357,44.303 23.574,35.635 C30.17,38.567 40.86,39.628 52.586,38.011 C64.21,36.419 74.117,32.578 79.702,28.003 C89.886,37 96.507,51.505 96.507,67.881 C96.507,76.272 94.788,84.156 91.705,91.08 C101.536,87.012 108.764,72.506 108.764,55.246 C108.764,36.772 100.474,21.534 89.633,18.754" id="Fill-65" fill="#42413E" mask="url(#mask-2)"></path>
                <path d="M5.318,162.773 L5.318,162.773 C7.312,158.582 9.826,154.685 12.777,151.167 C9.826,154.686 7.312,158.581 5.318,162.773 M12.803,151.135 C12.808,151.129 12.812,151.125 12.817,151.119 C12.813,151.124 12.807,151.13 12.803,151.135 M18.631,145.18 C19.735,144.21 20.878,143.284 22.058,142.408 C22.359,142.185 22.662,141.966 22.968,141.749 C22.661,141.967 22.357,142.187 22.056,142.41 C20.876,143.288 19.734,144.212 18.631,145.18 M28.616,138.223 C29.052,137.98 29.477,137.736 29.903,137.473 C30.074,137.37 30.245,137.265 30.414,137.159 C29.826,137.53 29.225,137.885 28.616,138.223 M33.602,134.917 C33.594,134.909 33.587,134.902 33.58,134.895 C33.581,134.894 33.583,134.893 33.584,134.892 L33.604,134.913 C38.57,130.955 42.415,125.649 44.595,119.563 C44.596,119.564 44.596,119.564 44.597,119.564 C42.415,125.654 38.569,130.955 33.602,134.917 M33.011,112.029 C27.493,107.242 22.404,100.947 18.705,93.645 C22.406,100.946 27.496,107.242 33.011,112.029 M18.702,93.639 C18.695,93.624 18.687,93.608 18.679,93.594 C18.687,93.608 18.695,93.624 18.702,93.639 M18.649,93.534 C18.649,93.533 18.648,93.532 18.648,93.531 C18.648,93.533 18.648,93.533 18.649,93.534" id="Fill-66" fill="#D8C7AF" mask="url(#mask-2)"></path>
                <path d="M54.641,143.765 C46.392,143.765 38.942,140.379 33.602,134.917 C38.569,130.955 42.415,125.654 44.597,119.564 C48.096,121.108 51.505,121.939 54.595,121.939 C54.749,121.939 54.906,121.937 55.062,121.933 L55.062,143.762 C54.922,143.764 54.782,143.765 54.641,143.765" id="Fill-67" fill="#D9A377" mask="url(#mask-2)"></path>
                <path d="M5.318,162.773 C7.312,158.581 9.826,154.686 12.777,151.167 C13.206,150.655 13.603,150.199 14.008,149.748 C15.46,148.137 17.003,146.61 18.631,145.18 C19.734,144.212 20.876,143.288 22.056,142.41 C22.357,142.187 22.661,141.967 22.968,141.749 C24.231,140.853 25.539,140.005 26.88,139.21 C27.435,138.881 28.001,138.562 28.566,138.254 C29.225,137.885 29.826,137.53 30.414,137.159 C31.514,136.471 32.574,135.713 33.58,134.895 C38.942,140.379 46.392,143.765 54.641,143.765 C54.782,143.765 54.922,143.764 55.062,143.762 L55.062,176.695 C54.906,176.696 54.75,176.696 54.594,176.696 C36.525,176.696 19.65,171.604 5.318,162.773 Z" id="Fill-68" fill="#2B71AB" mask="url(#mask-2)"></path>
                <path d="M54.595,121.939 C51.505,121.939 48.096,121.108 44.597,119.564 C44.596,119.564 44.596,119.564 44.595,119.563 C44.595,119.563 44.595,119.563 44.595,119.562 C40.74,117.861 36.775,115.296 33.011,112.029 C27.496,107.242 22.406,100.946 18.705,93.645 C18.704,93.643 18.703,93.64 18.702,93.639 C18.695,93.624 18.687,93.608 18.679,93.594 C18.669,93.574 18.659,93.554 18.649,93.534 C18.648,93.533 18.648,93.533 18.648,93.531 C17.715,91.68 16.872,89.766 16.134,87.795 C16.625,88.294 17.125,88.783 17.635,89.261 C15.058,82.791 13.617,75.539 13.617,67.881 C13.617,55.574 17.357,44.303 23.574,35.635 C28.079,37.637 34.493,38.767 41.842,38.767 C45.255,38.767 48.868,38.524 52.586,38.011 C53.42,37.896 54.246,37.771 55.062,37.634 L55.062,121.933 C54.906,121.937 54.749,121.939 54.595,121.939" id="Fill-69" fill="#D9A377" mask="url(#mask-2)"></path>
                <path d="M17.635,89.261 C17.125,88.783 16.625,88.294 16.134,87.795 C16.132,87.788 16.129,87.78 16.126,87.773 C6.996,78.478 1.362,65.585 1.362,51.325 C1.362,23 23.652,0.031 51.175,0.031 C52.481,0.031 53.776,0.083 55.062,0.186 L55.062,37.634 C54.246,37.771 53.42,37.896 52.586,38.011 C48.868,38.524 45.255,38.767 41.842,38.767 C34.493,38.767 28.079,37.637 23.574,35.635 C17.357,44.303 13.617,55.574 13.617,67.881 C13.617,75.539 15.058,82.791 17.635,89.261" id="Fill-70" fill="#3E3932" mask="url(#mask-2)"></path>
            </g>
        </g>
    </g>
</svg>